<?xml version="1.0" encoding="UTF-8"?>
<svg xmlns="http://www.w3.org/2000/svg" viewBox="0 0 1200 630" width="1200" height="630">
  <defs>
    <linearGradient id="g29086" x1="93.7309853569698%" y1="25.75951898768314%" x2="6.269014643030211%" y2="74.24048101231686%">
      <stop offset="0%" stop-color="#0F766E"/>
      <stop offset="100%" stop-color="#115E59"/>
    </linearGradient>
  </defs>
  <rect width="1200" height="630" fill="url(#g29086)"/>
  <polygon points="130.83354776725173,250 250.83354776725173,190 370.83354776725173,250" fill="rgba(255,255,255,0.06)" stroke="rgba(255,255,255,0.12)" stroke-width="2"/><rect x="144.83354776725173" y="250" width="12" height="150" fill="rgba(255,255,255,0.08)"/><rect x="194.83354776725173" y="250" width="12" height="150" fill="rgba(255,255,255,0.08)"/><rect x="244.83354776725173" y="250" width="12" height="150" fill="rgba(255,255,255,0.08)"/><rect x="294.83354776725173" y="250" width="12" height="150" fill="rgba(255,255,255,0.08)"/><rect x="344.83354776725173" y="250" width="12" height="150" fill="rgba(255,255,255,0.08)"/><rect x="120.83354776725173" y="400" width="260" height="12" rx="2" fill="rgba(255,255,255,0.1)"/><path d="M 988.4394600521773 198.36411114782095 L 1033.4394600521773 218.36411114782095 L 1033.4394600521773 258.36411114782095 C 1033.4394600521773 288.36411114782095 988.4394600521773 308.36411114782095 988.4394600521773 308.36411114782095 C 988.4394600521773 308.36411114782095 943.4394600521773 288.36411114782095 943.4394600521773 258.36411114782095 L 943.4394600521773 218.36411114782095 Z" fill="rgba(255,255,255,0.06)" stroke="rgba(255,255,255,0.15)" stroke-width="2"/><text x="905.9257469139993" y="153.58505226671696" font-family="sans-serif" font-size="31.957023953087628" fill="rgba(255,255,255,0.15878176043741404)">★</text><text x="925.9261487983167" y="119.28806628100574" font-family="sans-serif" font-size="21.85267717950046" fill="rgba(255,255,255,0.11678965745493769)">★</text><text x="1072.2483491059393" y="164.91486893966794" font-family="sans-serif" font-size="22.080315387807786" fill="rgba(255,255,255,0.13206364386249334)">★</text><text x="903.7889363477007" y="94.5203039329499" font-family="sans-serif" font-size="24.470983407460153" fill="rgba(255,255,255,0.1037577564548701)">★</text><text x="851.6520066419616" y="122.2936380840838" font-family="sans-serif" font-size="27.458465652540326" fill="rgba(255,255,255,0.1741646563122049)">★</text>
  <circle cx="542.154292948544" cy="234.54093457432464" r="2.490794787183404" fill="rgba(255,255,255,0.047020787263754756)"/><circle cx="1124.194267205894" cy="584.3105789716356" r="1.334549963939935" fill="rgba(255,255,255,0.07704696177504958)"/><circle cx="102.06390134990215" cy="282.75443439837545" r="2.643627557437867" fill="rgba(255,255,255,0.0769311467721127)"/><circle cx="1102.6098813861609" cy="310.08629482006654" r="2.3303304077126086" fill="rgba(255,255,255,0.05042613435769454)"/><circle cx="729.8047346994281" cy="193.03016594611108" r="2.5117532620206475" fill="rgba(255,255,255,0.06686586719704793)"/><circle cx="1028.4398130141199" cy="128.87133110314608" r="1.6799651570618153" fill="rgba(255,255,255,0.05405763020506128)"/><circle cx="163.47019169479609" cy="595.7292812643573" r="1.1879003858193755" fill="rgba(255,255,255,0.07230670622782781)"/><circle cx="482.1839723736048" cy="123.15199001692235" r="2.7621262171305716" fill="rgba(255,255,255,0.03850964575074613)"/><circle cx="354.48419423773885" cy="375.5656951130368" r="2.7462062668055296" fill="rgba(255,255,255,0.050213969552423805)"/><circle cx="1080.5449708364904" cy="5.327277879696339" r="1.3164832019247115" fill="rgba(255,255,255,0.04211150841554627)"/><circle cx="733.0903820693493" cy="154.81432211352512" r="2.5634848726913333" fill="rgba(255,255,255,0.049638747198041525)"/><circle cx="812.2631404548883" cy="63.38806042447686" r="1.7682451768778265" fill="rgba(255,255,255,0.042654697441030294)"/><circle cx="288.8393322005868" cy="557.3835367499851" r="1.2724933619610965" fill="rgba(255,255,255,0.07830373058794066)"/><circle cx="902.7305047027767" cy="451.58972449600697" r="1.6098799156025052" fill="rgba(255,255,255,0.04501907622441649)"/><circle cx="258.40855836868286" cy="502.85930718295276" r="1.0506429895758629" fill="rgba(255,255,255,0.050636131113860755)"/><circle cx="982.9752976074815" cy="0.3374918829649687" r="2.9029264645650983" fill="rgba(255,255,255,0.07412095511797816)"/><circle cx="491.44843127578497" cy="220.38986803265288" r="1.8086824268102646" fill="rgba(255,255,255,0.07723508874885737)"/><circle cx="547.3462594673038" cy="433.8041385705583" r="1.9233234128914773" fill="rgba(255,255,255,0.05847111300798133)"/><circle cx="1115.305454749614" cy="82.06126047531143" r="1.2030024216510355" fill="rgba(255,255,255,0.032844634198118)"/><circle cx="264.44680681452155" cy="479.8952820478007" r="1.0907094040885568" fill="rgba(255,255,255,0.040684948007110505)"/>
  <text x="600" y="335" font-family="system-ui, -apple-system, 'Segoe UI', sans-serif" font-size="68" font-weight="700" fill="rgba(0,0,0,0.15)" text-anchor="middle" letter-spacing="1">SSC Mts</text>
  <text x="600" y="332" font-family="system-ui, -apple-system, 'Segoe UI', sans-serif" font-size="68" font-weight="700" fill="white" text-anchor="middle" letter-spacing="1">SSC Mts</text>
  <g transform="translate(1140, 575)">
    <rect x="0" y="0" width="40" height="40" rx="8" fill="rgba(255,255,255,0.15)"/>
    <text x="20" y="29" font-family="sans-serif" font-weight="bold" font-size="24" fill="rgba(255,255,255,0.6)" text-anchor="middle">K</text>
  </g>
</svg>